<svg width="109" height="109" viewBox="0 0 109 109" fill="none" xmlns="http://www.w3.org/2000/svg">
<circle cx="54.5" cy="54.5" r="54.5" fill="#A4A0FF"/>
<path d="M44.1835 70.2496L54.4999 80.3526L64.8164 70.2496L54.4999 60.1468L44.1835 70.2496ZM54.4999 21.219V21.2342C51.5472 21.2342 48.5945 22.3382 46.3451 24.5411L46.3348 24.531C44.0904 26.7338 42.9631 29.6305 42.9631 32.5272C42.9631 35.4289 44.0853 38.3205 46.3243 40.5132H46.3398L54.4999 48.4994L62.6549 40.5132H62.6705C64.925 38.3053 66.0523 35.4136 66.0523 32.5272H66.0367C66.0367 29.6356 64.9095 26.744 62.66 24.5411C60.395 22.3281 57.4423 21.219 54.4999 21.219ZM70.7632 76.0734L57.4734 89.0881L54.4999 92L51.5265 89.0881L38.2368 76.0734L24.9468 89.0881L19 83.2643L48.5583 54.3232L40.4034 46.337L40.4137 46.3269C36.5095 42.5084 34.56 37.5102 34.56 32.5272C34.56 27.539 36.5095 22.5458 40.4034 18.7326V18.7224C44.2973 14.9092 49.4011 13 54.4999 13V13.0152C59.6091 13.0152 64.7182 14.9193 68.6016 18.7224C72.4955 22.5357 74.4399 27.534 74.4399 32.5322H74.4244C74.4244 37.5254 72.48 42.5187 68.5914 46.332L68.6016 46.342L60.4468 54.3232L90 83.2643L84.0531 89.0881L70.7632 76.0734Z" fill="#FFFCF2"/>
</svg>
