<svg width="20" height="29" viewBox="0 0 20 29" fill="none" xmlns="http://www.w3.org/2000/svg">
<path d="M0 10.322C0 15.1214 3.66403 20.3285 6.89711 24.8283C7.66564 25.8973 8.40178 26.9212 9.04222 27.8819C9.19244 28.1072 9.44548 28.2424 9.71585 28.2424C9.98623 28.2424 10.2393 28.1072 10.3895 27.8819C11.0299 26.9212 11.7661 25.8972 12.5346 24.8283C15.7678 20.3285 19.4318 15.1214 19.4318 10.322C19.4318 4.96431 15.0736 0.606079 9.71591 0.606079C4.35823 0.606079 0 4.96431 0 10.322ZM14.5739 10.322C14.5739 13.0008 12.3947 15.1799 9.71591 15.1799C7.03707 15.1799 4.85795 13.0008 4.85795 10.322C4.85795 7.64315 7.03707 5.46403 9.71591 5.46403C12.3947 5.46403 14.5739 7.64315 14.5739 10.322Z" fill="white"/>
<path d="M9.71593 13.5606C11.5046 13.5606 12.9546 12.1106 12.9546 10.322C12.9546 8.53335 11.5046 7.08336 9.71593 7.08336C7.92728 7.08336 6.47729 8.53335 6.47729 10.322C6.47729 12.1106 7.92728 13.5606 9.71593 13.5606Z" fill="white"/>
</svg>
