<svg width="71" height="79" viewBox="0 0 71 79" fill="none" xmlns="http://www.w3.org/2000/svg">
<path d="M25.1835 57.2496L35.4999 67.3526L45.8164 57.2496L35.4999 47.1468L25.1835 57.2496ZM35.4999 8.21904V8.23423C32.5472 8.23423 29.5945 9.33821 27.3451 11.5411L27.3348 11.531C25.0904 13.7338 23.9631 16.6305 23.9631 19.5272C23.9631 22.4289 25.0853 25.3205 27.3243 27.5132H27.3398L35.4999 35.4994L43.6549 27.5132H43.6705C45.925 25.3053 47.0523 22.4136 47.0523 19.5272H47.0367C47.0367 16.6356 45.9095 13.744 43.66 11.5411C41.395 9.32807 38.4423 8.21904 35.4999 8.21904ZM51.7632 63.0734L38.4734 76.0881L35.4999 79L32.5265 76.0881L19.2368 63.0734L5.94682 76.0881L0 70.2643L29.5583 41.3232L21.4034 33.337L21.4137 33.3269C17.5095 29.5084 15.56 24.5102 15.56 19.5272C15.56 14.539 17.5095 9.54584 21.4034 5.73256V5.72243C25.2973 1.90917 30.4011 0 35.4999 0V0.0151925C40.6091 0.0151925 45.7182 1.91929 49.6016 5.72243C53.4955 9.5357 55.4399 14.534 55.4399 19.5322H55.4244C55.4244 24.5254 53.48 29.5187 49.5914 33.332L49.6016 33.342L41.4468 41.3232L71 70.2643L65.0531 76.0881L51.7632 63.0734Z" fill="#FFFCF2"/>
</svg>
